<svg xmlns="http://www.w3.org/2000/svg" width="240" height="240" viewBox="0 0 240 240"><g fill="none" stroke="#5CD2FF" stroke-opacity=".22" stroke-width="1.5" stroke-linejoin="round"><path d="M0 40h60l20 20h60l20-20h80"/><path d="M40 0v20l20 20"/><path d="M140 60v60l-20 20H60l-20 20v80"/><path d="M200 40v80h40"/><path d="M0 200h80l20-20h60l20 20v40"/><path d="M160 180V140h40l20-20"/><path d="M0 120h30"/></g><g fill="#5CD2FF" fill-opacity=".35"><circle cx="80" cy="60" r="3"/><circle cx="140" cy="120" r="3"/><circle cx="200" cy="120" r="3"/><circle cx="100" cy="180" r="3"/><circle cx="30" cy="120" r="3.5"/><circle cx="220" cy="120" r="2.5"/></g><g fill="none" stroke="#FFB627" stroke-opacity=".3" stroke-width="1.5"><rect x="100" y="84" width="24" height="12" rx="2"/><path d="M160 150h16M164 146v8M172 146v8"/></g></svg>